<?xml version="1.0" encoding="utf-8"?>
<!-- Generator: Adobe Illustrator 27.9.0, SVG Export Plug-In . SVG Version: 6.00 Build 0)  -->
<svg version="1.1" id="Camada_1" xmlns="http://www.w3.org/2000/svg" xmlns:xlink="http://www.w3.org/1999/xlink" x="0px" y="0px"
	 viewBox="0 0 640 360" style="enable-background:new 0 0 640 360;" xml:space="preserve">
<style type="text/css">
	.st0{fill:#006C4C;}
	.st1{fill:#62B55A;}
</style>
<g>
	<path class="st0" d="M99.02,223.1c-12.5-19.19-31.42-33.8-53.72-40.76c0.67,8.83,2.23,17.42,4.58,25.69
		c7.44,3.69,14.31,8.61,20.34,14.65c13.5,13.5,21.48,31.03,22.61,49.97v0.02c6.86,5.54,14.32,10.38,22.25,14.42v-9.75
		C115.08,257.34,109.17,238.69,99.02,223.1z"/>
	<path class="st0" d="M148.55,217.6c-4.23-9.44-9.46-18.34-15.52-26.57c-4.83-6.56-10.19-12.69-16.02-18.34
		C98.75,154.96,75.87,142,50.34,135.77c-2.1,7.02-3.61,14.29-4.5,21.77c6.06,1.52,12,3.54,17.79,5.98
		c14.71,6.21,27.92,15.11,39.28,26.48c1.6,1.6,3.13,3.21,4.61,4.88c6.19,6.88,11.56,14.38,16.02,22.42
		c2.15,3.86,4.11,7.86,5.85,11.96c6.44,15.23,9.69,31.4,9.69,48.09v19.07c7.19,1.98,14.61,3.36,22.25,4.06v-23.13
		C161.32,256.06,156.76,235.83,148.55,217.6z"/>
	<path class="st0" d="M198.06,217.62c-1.63-5.06-3.52-10.08-5.61-15.02c-1.96-4.61-4.08-9.15-6.38-13.57
		c-3.79-7.35-8.06-14.4-12.75-21.15c-4.73-6.83-9.92-13.32-15.54-19.52c-2.1-2.31-4.27-4.58-6.48-6.79
		c-3.08-3.08-6.25-6.06-9.52-8.88c-15.36-13.44-32.63-24.27-51.49-32.25c-6-2.54-12.08-4.75-18.25-6.65
		c-4.77,6.1-8.98,12.63-12.58,19.54c26.23,7,49.95,20.11,69.55,37.76c5.69,5.1,11.06,10.61,16.02,16.46
		c5.71,6.73,10.9,13.9,15.54,21.48c4.92,8.08,9.21,16.61,12.75,25.52c7.75,19.42,12,40.61,12,62.8v23.13
		c7.61-0.69,15.06-2.08,22.23-4.06v-19.07C207.54,256.84,204.37,236.81,198.06,217.62z"/>
	<path class="st0" d="M247.77,222.85c-2.21-9.56-5.04-18.96-8.48-28.21c-1.23-3.4-2.58-6.79-4-10.15c-1.71-4.06-3.54-8.06-5.48-12
		c-3.61-7.42-7.61-14.63-12-21.59c-3.94-6.33-8.21-12.46-12.79-18.38c-4.81-6.33-10-12.42-15.54-18.29
		c-1.69-1.85-3.46-3.65-5.25-5.44c-3.48-3.5-7.08-6.86-10.75-10.09c-18.21-16.15-38.61-29.28-60.86-39.17
		c-7.88,4.23-15.29,9.27-22.07,15.02c24.77,9.11,47.4,22.67,66.93,39.67c5.61,4.86,10.96,10.02,16,15.44
		c5.54,5.88,10.71,12.08,15.54,18.54c4.58,6.15,8.84,12.54,12.75,19.17c4.48,7.52,8.5,15.34,12,23.44
		c3.73,8.44,6.9,17.19,9.48,26.17c5.08,17.4,7.98,35.73,8.46,54.65c0,0-0.02,0.02,0,0.04c0.06,1.85,0.08,3.71,0.08,5.58v9.75
		c7.88-4.06,15.31-8.88,22.13-14.42c0.02,0,0.04,0,0.04-0.02v-0.5C253.61,255.33,251.54,238.89,247.77,222.85z"/>
	<path class="st1" d="M247.77,222.85c-9.29,14.15-15.06,30.82-16.06,48.76c0,0-0.02,0.02,0,0.04c-0.12,1.88-0.17,3.79-0.17,5.69
		v9.75c0.08-0.04,0.17-0.08,0.25-0.12c7.88-4.06,15.31-8.88,22.13-14.42c0-0.17,0.02-0.35,0.04-0.52
		c1.25-18.65,9.09-36.01,22.44-49.36c6.04-6.04,12.9-10.96,20.34-14.65c2.35-8.27,3.9-16.86,4.58-25.71
		C279.13,189.26,260.27,203.78,247.77,222.85z"/>
	<path class="st1" d="M296.28,135.77c-25.44,6.21-48.24,19.11-66.47,36.73c-5.85,5.63-11.21,11.77-16.04,18.31
		c-6.15,8.31-11.42,17.29-15.71,26.82c-8.19,18.23-12.75,38.46-12.75,59.72v23.13c7.61-0.69,15.06-2.08,22.23-4.06v-19.07
		c0-16.69,3.25-32.86,9.69-48.09c1.79-4.21,3.81-8.33,6.02-12.29c4.48-8,9.84-15.48,16.04-22.32c1.44-1.6,2.9-3.13,4.42-4.65
		c11.36-11.36,24.57-20.27,39.28-26.48c5.81-2.44,11.75-4.44,17.79-5.96C299.91,150.07,298.4,142.78,296.28,135.77z"/>
	<path class="st1" d="M274.57,93.79c-6.17,1.9-12.25,4.11-18.25,6.65c-18.79,7.94-35.99,18.71-51.3,32.07
		c-3.33,2.88-6.58,5.92-9.71,9.06c-2.15,2.15-4.27,4.36-6.29,6.61c-5.71,6.23-10.94,12.81-15.71,19.69
		c-4.71,6.75-8.98,13.81-12.75,21.15c-2.31,4.42-4.44,8.96-6.4,13.57c-2.08,4.94-3.96,9.94-5.61,15
		c-6.29,19.19-9.48,39.22-9.48,59.74v19.07c7.19,1.98,14.61,3.36,22.25,4.06v-23.13c0-22.19,4.25-43.38,12-62.8
		c3.54-8.9,7.83-17.44,12.75-25.52c4.67-7.65,9.92-14.88,15.71-21.67c4.96-5.85,10.33-11.34,16.04-16.46
		c19.55-17.54,43.21-30.61,69.34-37.57C283.55,106.42,279.34,99.89,274.57,93.79z"/>
	<path class="st1" d="M234.21,59.64c-22.19,9.86-42.53,22.96-60.72,39.05c-3.71,3.25-7.35,6.67-10.86,10.19
		c-1.75,1.75-3.48,3.52-5.13,5.33c-5.6,5.92-10.84,12.08-15.71,18.48c-4.58,5.94-8.84,12.08-12.77,18.4
		c-4.38,6.98-8.38,14.17-12,21.59c-1.92,3.92-3.73,7.88-5.44,11.92c-1.44,3.4-2.79,6.83-4.06,10.27c-3.42,9.25-6.27,18.67-8.5,28.23
		c-3.81,16.15-5.88,32.69-6.19,49.55v0.02c6.86,5.54,14.32,10.38,22.25,14.42v-9.75c0-20.84,2.94-40.99,8.46-60.05
		c2.6-9.02,5.77-17.79,9.5-26.27c3.52-8.11,7.54-15.94,12-23.48c3.92-6.63,8.17-13.04,12.75-19.19
		c4.88-6.54,10.11-12.77,15.71-18.71c5.04-5.4,10.38-10.56,16-15.42c19.5-16.94,42.05-30.44,66.74-39.55
		C249.46,68.93,242.08,63.87,234.21,59.64z"/>
	<g>
		<path class="st0" d="M435.58,196.78 M435.58,208.56"/>
		<g>
			<path class="st0" d="M582.82,183.77c5.58-3.75,9.36-8.92,9.36-16.01c0-9.46-7.38-15.86-17.51-15.86H552.2v56.11
				c4.55,0.25,8.09,0.25,11.67,0v-16.95c2.9-0.62,5.82-1.39,8.62-2.35c3.88,6.54,7.09,12.57,10.04,19.3c3.8,0.25,9.65,0.25,13.17,0
				C591.83,199.47,587.3,191.05,582.82,183.77z M563.87,163.67h8.79c5.59,0,7.94,1.61,7.51,5.62c-0.6,5.65-9.61,8.89-16.31,10.47
				V163.67z"/>
			<path class="st0" d="M527.07,151.67c-3.64-0.32-8.36-0.31-12.22,0.03l-20.91,56.29c4.16,0.28,8.69,0.28,12.61-0.03l3.14-8.64
				c6.69-1.95,16.06-1.96,22.86-0.02l3.2,8.72c4.1,0.21,8.61,0.23,12.54-0.05L527.07,151.67z M514.03,187.4l7.04-19.35l7.11,19.34
				C523.56,186.82,518.63,186.82,514.03,187.4z"/>
			<path class="st0" d="M490.47,208.01l-0.16-56.23c-3.75-0.26-7.7-0.23-11.83,0.03l0.09,30.92c-7.15-11.95-16.37-23.21-24.6-30.62
				l0-0.22c-3.89-0.25-7.8-0.25-11.73,0.03l0.16,56.23c3.89,0.35,7.8,0.36,11.73-0.03l-0.11-39.25
				c10.33,11.29,19.89,25.98,24.61,39.17l0.01,0C482.76,208.25,486.72,208.26,490.47,208.01z"/>
			<path class="st0" d="M396.76,207.98v-56.08h37.12c0.39,3.66,0.4,7.58,0,11.77l-25.43,0v9.31l21.49,0c0.3,3.28,0.3,7.42,0,10.97
				l-21.49,0v12.26h27.13c0.39,3.66,0.4,7.58,0,11.77H396.76z"/>
			<path class="st0" d="M371.2,208.74c10.06,0,19.46-4.99,19.46-16.23c0-10.72-7.1-13.7-14.95-17.64
				c-3.85-1.94-14.73-6.03-14.73-9.38c0-2.75,3.18-3.42,7.18-3.42c4.66,0,10.43,1.12,14.21,2.68c1.78-2.68,3.33-5.81,4.22-9.6
				c-5.11-2.46-12.43-4.02-20.94-4.02c-9.99,0-16.95,4.91-16.95,14.81c0,10.94,12.95,15.41,18.5,17.94c6.29,2.9,11.4,4.54,11.4,9.23
				c0,4.02-5.77,3.94-8.51,3.94c-5.77,0-13.76-1.56-20.05-4.47c-1.78,2.9-3.55,6.25-4.66,9.9
				C352.25,206.95,362.54,208.74,371.2,208.74z"/>
		</g>
		<g>
			<path class="st0" d="M374.55,85.65c5.67-0.02,10.78,2.37,15.33,7.15c3.46-2.44,6.47-5.12,9.03-8.08
				c-3.07-3.54-6.72-6.28-10.95-8.19c-4.23-1.92-8.63-2.87-13.19-2.85c-5.36,0.02-10.37,1.33-15.01,3.95
				c-4.64,2.62-8.21,6.08-10.69,10.37c-2.48,4.29-3.72,9.2-3.7,14.71c0.02,8.52,2.78,15.5,8.28,20.94
				c5.49,5.44,12.54,8.14,21.14,8.12c4.66-0.01,8.81-0.8,12.44-2.35c3.63-1.55,7.48-4.33,11.56-8.33c-2.63-3.02-5.6-5.83-8.85-8.46
				c-2.74,2.73-5.25,4.62-7.54,5.66c-2.29,1.04-4.82,1.57-7.58,1.57c-3.24,0.01-6.19-0.72-8.85-2.19c-2.66-1.47-4.72-3.5-6.18-6.08
				c-1.46-2.59-2.19-5.55-2.2-8.89c-0.01-4.79,1.61-8.83,4.88-12.12C365.74,87.31,369.76,85.67,374.55,85.65z"/>
			<path class="st0" d="M443.24,74.45l0.09,31.87c-7.68-12.67-17.45-23.77-27.16-31.8v0c-3.91-0.25-7.84-0.25-11.79,0.03l0.16,56.16
				c3.91,0.35,7.83,0.36,11.79-0.03l-0.12-40.38c11.46,11.58,21.14,25.95,27.17,40.31l0.01,0v0c4.14,0.21,8.12,0.22,11.88-0.03
				l-0.16-56.16C451.36,74.15,447.39,74.18,443.24,74.45z"/>
			<path class="st0" d="M493.77,74.3c-3.66-0.32-7.43-0.31-11.3,0.03l-21.5,56.23c4.18,0.28,8.24,0.28,12.19-0.04l3.21-8.75
				c6.89-2.12,16.83-2.13,23.85-0.02l3.22,8.68c4.12,0.21,8.17,0.24,12.11-0.03L493.77,74.3z M480.76,109.81l7.47-20.37l7.55,20.36
				C490.88,109.16,485.63,109.16,480.76,109.81z"/>
		</g>
		<g>
			<g>
				<path class="st0" d="M397.06,240.73c5.67-0.02,10.78,2.37,15.33,7.15c3.46-2.44,6.47-5.12,9.03-8.08
					c-3.07-3.54-6.72-6.28-10.95-8.19c-4.23-1.92-8.63-2.87-13.19-2.85c-5.36,0.02-10.37,1.33-15.01,3.95
					c-4.64,2.62-8.21,6.08-10.69,10.37c-2.48,4.29-3.72,9.2-3.7,14.71c0.02,8.52,2.78,15.5,8.28,20.94
					c5.49,5.44,12.54,8.14,21.14,8.12c4.66-0.01,8.81-0.8,12.44-2.35c3.63-1.55,7.48-4.33,11.56-8.33c-2.63-3.02-5.6-5.83-8.85-8.46
					c-2.74,2.73-5.25,4.62-7.54,5.66c-2.29,1.04-4.82,1.57-7.58,1.57c-3.24,0.01-6.19-0.72-8.85-2.19c-2.66-1.47-4.72-3.5-6.18-6.08
					c-1.46-2.59-2.19-5.55-2.2-8.89c-0.01-4.79,1.61-8.83,4.88-12.12C388.25,242.39,392.27,240.75,397.06,240.73z"/>
				<path class="st0" d="M465.75,229.53l0.09,31.87c-7.68-12.67-17.45-23.77-27.16-31.8v0c-3.91-0.25-7.84-0.25-11.79,0.03
					l0.16,56.16c3.91,0.35,7.83,0.36,11.79-0.03l-0.12-40.38c11.46,11.58,21.14,25.95,27.17,40.31l0.01,0v0
					c4.14,0.21,8.12,0.22,11.88-0.03l-0.16-56.16C473.87,229.23,469.9,229.26,465.75,229.53z"/>
				<path class="st0" d="M516.28,229.38c-3.66-0.32-7.43-0.31-11.3,0.03l-21.5,56.23c4.18,0.28,8.24,0.28,12.19-0.03l3.21-8.75
					c6.89-2.12,16.83-2.13,23.85-0.02l3.22,8.68c4.12,0.21,8.17,0.24,12.11-0.03L516.28,229.38z M503.27,264.89l7.47-20.37
					l7.55,20.36C513.39,264.24,508.14,264.24,503.27,264.89z"/>
			</g>
			<path class="st0" d="M363.25,273.3 M363.25,284.85"/>
			<path class="st0" d="M347.69,229.52h12.73v56.57h-12.73V229.52z"/>
		</g>
	</g>
</g>
</svg>
